<?xml version="1.0" encoding="UTF-8"?>
<svg id="Layer_2" xmlns="http://www.w3.org/2000/svg" xmlns:xlink="http://www.w3.org/1999/xlink" viewBox="0 0 336 192">
  <defs>
    <linearGradient id="linear-gradient" x1="161.17" y1="60.58" x2="299.52" y2="149.31" gradientUnits="userSpaceOnUse">
      <stop offset=".11" stop-color="#004830"/>
      <stop offset=".5" stop-color="#00613a"/>
      <stop offset=".88" stop-color="#053a2e"/>
    </linearGradient>
    <linearGradient id="linear-gradient-2" x1="166.07" y1="112.56" x2="324.66" y2="112.56" gradientUnits="userSpaceOnUse">
      <stop offset="0" stop-color="#13dd8d"/>
      <stop offset=".04" stop-color="#0fb374"/>
      <stop offset=".08" stop-color="#0b885b"/>
      <stop offset=".12" stop-color="#086647"/>
      <stop offset=".16" stop-color="#064d39"/>
      <stop offset=".2" stop-color="#053f30"/>
      <stop offset=".23" stop-color="#053a2e"/>
      <stop offset=".33" stop-color="#0c2b24"/>
      <stop offset=".49" stop-color="#151919"/>
      <stop offset=".66" stop-color="#0d2923"/>
      <stop offset=".79" stop-color="#053a2e"/>
      <stop offset=".82" stop-color="#053f31"/>
      <stop offset=".85" stop-color="#06503b"/>
      <stop offset=".89" stop-color="#096c4b"/>
      <stop offset=".93" stop-color="#0c9261"/>
      <stop offset=".98" stop-color="#10c37d"/>
      <stop offset="1" stop-color="#13dd8d"/>
    </linearGradient>
    <linearGradient id="linear-gradient-3" x1="163.99" y1="109.99" x2="330" y2="115.22" xlink:href="#linear-gradient-2"/>
    <linearGradient id="linear-gradient-4" x1="254.48" y1="192.02" x2="254.48" y2="147.13" gradientUnits="userSpaceOnUse">
      <stop offset="0" stop-color="#63fcb2"/>
      <stop offset="1" stop-color="#63fcb2" stop-opacity="0"/>
    </linearGradient>
    <linearGradient id="linear-gradient-5" x1="311.1" y1="166.08" x2="311.1" y2="151.66" xlink:href="#linear-gradient-4"/>
    <linearGradient id="linear-gradient-6" x1="317.24" y1="160.94" x2="317.24" y2="160.85" xlink:href="#linear-gradient-4"/>
    <linearGradient id="linear-gradient-7" x1="115.16" y1="115.43" x2="115.16" y2="71.44" xlink:href="#linear-gradient-4"/>
    <linearGradient id="linear-gradient-8" x1="239.85" y1="143.15" x2="251.73" y2="84.09" gradientUnits="userSpaceOnUse">
      <stop offset="0" stop-color="#191919"/>
      <stop offset="1" stop-color="#005239"/>
    </linearGradient>
    <linearGradient id="linear-gradient-9" x1="225.52" y1="101.18" x2="201.62" y2="87.38" gradientUnits="userSpaceOnUse">
      <stop offset="0" stop-color="#23251f"/>
      <stop offset="1" stop-color="#005239"/>
    </linearGradient>
    <linearGradient id="linear-gradient-10" x1="203.26" y1="31.55" x2="286.25" y2="5.41" gradientUnits="userSpaceOnUse">
      <stop offset="0" stop-color="#c5bf65"/>
      <stop offset="1" stop-color="#004d34"/>
    </linearGradient>
    <linearGradient id="linear-gradient-11" x1="257.73" y1="16.58" x2="277.15" y2="9.32" gradientUnits="userSpaceOnUse">
      <stop offset="0" stop-color="#c5bf65"/>
      <stop offset="1" stop-color="#004d34"/>
    </linearGradient>
    <linearGradient id="linear-gradient-12" x1="222.77" y1="36.25" x2="267.89" y2="88.04" gradientUnits="userSpaceOnUse">
      <stop offset="0" stop-color="#c5bf65"/>
      <stop offset="1" stop-color="#004d34"/>
    </linearGradient>
    <linearGradient id="linear-gradient-13" x1="271.93" y1="67.81" x2="292.76" y2="67.81" gradientUnits="userSpaceOnUse">
      <stop offset="0" stop-color="#c5bf65"/>
      <stop offset=".97" stop-color="#004d34"/>
    </linearGradient>
    <linearGradient id="linear-gradient-14" x1="220.69" y1="7.05" x2="242.71" y2="-3.81" gradientUnits="userSpaceOnUse">
      <stop offset="0" stop-color="#c5bf65"/>
      <stop offset="1" stop-color="#004d34"/>
    </linearGradient>
  </defs>
  <rect y=".03" width="336" height="192" style="fill: #6ac281;"/>
  <polyline points="288.96 192 336 164.84 336 171.93 301.24 192" style="fill: #fdeac4;"/>
  <path d="M212.44,192l-118.54-68.53s-2.53-1.88-3.14-2.73c-.38-.53-1-2.4-1-2.4v-7.09s.17,1.75.84,2.56c.92,1.11,3.3,2.57,3.3,2.57l130.8,75.62" style="fill: #fdeac4;"/>
  <path d="M209.66,192.02l-115.77-66.92s-2.26-1.57-3.09-2.45c-.98-1.04-1.06-2.68-1.06-2.68v-2.4s.39,1.59,1,2.4c.89,1.17,3.14,2.73,3.14,2.73l119.88,69.3" style="fill: #3ac387;"/>
  <polyline points="299.9 192 336 171.15 336 173.55 304.05 192" style="fill: #3ac387;"/>
  <path d="M208.33,192.02l-114.43-66.14s-2.26-1.57-3.09-2.45c-.98-1.04-1.06-2.68-1.06-2.68v-2.4s.39,1.59,1,2.4c.89,1.17,3.14,2.73,3.14,2.73l118.54,68.53" style="fill: #102700;"/>
  <polyline points="301.24 192 336 171.93 336 174.33 305.4 192" style="fill: #102700;"/>
  <polyline points="280.39 192.02 336 159.92 336 165.83 290.67 192" style="fill: #d3d2a6;"/>
  <path d="M223,192L93.9,117.37s-2.85-1.89-3.46-2.74c-.38-.53-.68-2.39-.68-2.39v-5.8s-.12,1.43.68,2.39,3.46,2.74,3.46,2.74l139.51,80.45" style="fill: #d3d2a6;"/>
  <path d="M234.92,192.02L91.71,109.34c-2.61-1.51-2.61-5.28,0-6.78L231.95,21.58c1.21-.7,2.71-.7,3.92,0l100.13,57.81v79.55s-57.28,33.07-57.28,33.07" style="fill: url(#linear-gradient);"/>
  <path d="M268.25,192l11.17-6.45c.79-.45.49-1.65-.42-1.69l-49.26-2.04c-.95-.04-1.31,1.22-.49,1.69l14.73,8.51" style="fill: #151919;"/>
  <path d="M286.28,181.42l-65.5-2.72c-.15,0-.29-.05-.42-.12l-10.89-6.29c-.82-.47-.46-1.73.49-1.69l15.94.66c.17,0,.34-.03.49-.12l4.04-2.33c.15-.09.32-.13.49-.12l42.47,1.76c.15,0,.29.05.42.12l4.87,2.81c.13.07.27.11.42.12l16.49.68c.9.04,1.2,1.23.42,1.69l-9.23,5.42c-.15.09-.32.13-.5.12Z" style="fill: #151919;"/>
  <path d="M127.69,123.2l-3.63-29.21c-.08-.64-.79-1-1.35-.67l-23.48,13.55c-.6.35-.6,1.22,0,1.57l27.11,15.65c.65.37,1.45-.15,1.35-.9Z" style="fill: #151919;"/>
  <path d="M132.97,127.51l-4.61-37.05c-.04-.36.13-.72.45-.9l10.66-6.15c.56-.32,1.27.03,1.35.67l1.2,9.68c.04.28.2.53.45.67l4.41,2.55c.25.14.41.39.45.67l2.95,23.75c.04.36-.13.72-.45.9l-3.51,2.03c-.32.18-.49.54-.45.9l1.12,9.03c.09.74-.7,1.27-1.35.9l-12.23-6.98c-.25-.14-.42-.39-.45-.68Z" style="fill: #151919;"/>
  <path d="M256.67,158.51c-21.95,0-45.1-5.34-63.14-15.75-17.45-10.08-27.46-23.46-27.46-36.73,0-11,6.92-21.05,19.48-28.3,28.58-16.5,78.66-14.43,111.65,4.61,17.45,10.08,27.46,23.46,27.46,36.73,0,11-6.92,21.05-19.48,28.3-12.95,7.48-30.32,11.14-48.51,11.14ZM194.03,141.91c32.71,18.88,82.35,20.95,110.66,4.61,12.24-7.07,18.99-16.82,18.99-27.45,0-12.9-9.83-25.98-26.97-35.88-32.71-18.89-82.35-20.95-110.66-4.61-12.24,7.07-18.99,16.82-18.99,27.45,0,12.9,9.83,25.98,26.97,35.88h0Z" style="fill: url(#linear-gradient-2); stroke: #151919; stroke-miterlimit: 10; stroke-width: .2px;"/>
  <path d="M257.2,160.64c-22.97,0-47.2-5.58-66.07-16.48-18.26-10.54-28.73-24.55-28.73-38.42,0-11.5,7.24-22.01,20.38-29.6,29.91-17.27,82.32-15.1,116.83,4.82,18.26,10.54,28.73,24.55,28.73,38.42,0,11.5-7.24,22.01-20.38,29.6-13.55,7.82-31.73,11.66-50.76,11.66ZM233.54,65.44c-18.86,0-36.85,3.8-50.27,11.54-12.82,7.4-19.89,17.61-19.89,28.75,0,13.51,10.29,27.21,28.24,37.57,34.24,19.77,86.21,21.93,115.85,4.82,12.82-7.4,19.89-17.61,19.89-28.75,0-13.51-10.29-27.21-28.24-37.57-18.74-10.82-42.79-16.37-65.58-16.37Z" style="fill: url(#linear-gradient-3); stroke: #151919; stroke-miterlimit: 10; stroke-width: .2px;"/>
  <path d="M332.29,120.33c0-14.11-10.35-28.34-28.44-39.27l16.97-9.8-.98-.57-16.96,9.79c-.23-.13-.45-.27-.68-.39-36.07-20.81-90.79-23.14-122.17-5.2l-19.67-11.34-.98.56,19.67,11.36c-13.3,7.91-20.62,18.74-20.62,30.57,0,14.53,10.98,29.2,30.1,40.25.06.04.13.07.19.11l-16.89,9.76.98.57,16.91-9.77c19.6,10.98,44.46,16.6,68.05,16.6,19.82,0,38.76-3.97,52.94-12.08l19.66,11.35.94-.59-19.62-11.33c13.3-7.91,20.62-18.74,20.62-30.57ZM310.46,150.49c-14.06,8.11-32.92,12.09-52.69,12.09-23.89,0-49.11-5.81-68.75-17.15-18.81-10.86-29.6-25.22-29.6-39.39,0-11.68,7.41-22.39,20.85-30.15,14.07-8.12,32.93-12.1,52.7-12.1,23.88,0,49.09,5.81,68.74,17.15,18.81,10.86,29.6,25.22,29.6,39.39,0,11.68-7.4,22.39-20.85,30.16Z" style="fill: #151919;"/>
  <path d="M286.28,180.21l-65.5-2.72c-.15,0-.29-.05-.42-.12l-10.89-6.29c-.82-.47-.46-1.73.49-1.69l15.94.66c.17,0,.34-.03.49-.12l4.04-2.33c.15-.09.32-.13.49-.12l42.47,1.76c.15,0,.29.05.42.12l4.87,2.81c.13.07.27.11.42.12l16.49.68c.9.04,1.2,1.23.42,1.69l-9.23,5.42c-.15.09-.32.13-.5.12Z" style="fill: #00563c;"/>
  <path d="M132.96,126.29l-4.61-37.05c-.04-.36.13-.72.45-.9l10.66-6.15c.56-.32,1.27.03,1.35.67l1.2,9.68c.04.28.2.53.45.67l4.41,2.55c.25.14.41.39.45.67l2.95,23.75c.04.36-.13.72-.45.9l-3.51,2.03c-.32.18-.49.54-.45.9l1.12,9.03c.09.74-.7,1.27-1.35.9l-12.23-6.98c-.25-.14-.42-.39-.45-.68Z" style="fill: #00563c;"/>
  <path d="M179.35,70.88c0,.08-.05.16-.14.21-.1.06-.23.08-.36.08-.16,0-.34-.04-.47-.11-.13-.08-.2-.18-.2-.27,0,0,0,0,0-.01l-15.18-9.38.4-.23,15.16,9.33c.19-.03.42.01.59.11.13.08.21.17.21.27Z" style="fill: #13dd8d;"/>
  <path d="M181.39,69.87c0,.08-.05.16-.14.21-.1.06-.23.08-.36.08-.16,0-.34-.04-.47-.12-.12-.07-.19-.16-.2-.24l-15.34-9.5.4-.23,15.26,9.42c.21-.04.47-.01.65.1.13.08.21.18.21.27Z" style="fill: #13dd8d;"/>
  <path d="M183.53,69.05c0,.09-.05.16-.15.22-.1.06-.23.08-.37.08-.17,0-.34-.04-.48-.12-.12-.07-.2-.16-.21-.26l-15.72-9.66.4-.23,15.63,9.59c.22-.05.49-.01.68.1.13.08.21.18.21.28Z" style="fill: #13dd8d;"/>
  <g>
    <path d="M124.05,92.77c-.08-.64-.79-1-1.35-.67l-23.48,13.55c-.6.35-.6,1.22,0,1.57l27.11,15.65c.65.37,1.45-.15,1.35-.9l-3.63-29.21ZM123.12,117.69l-18.53-10.7c-.6-.35-.6-1.22,0-1.57l16.05-9.27c.56-.32,1.27.03,1.35.67l2.48,19.97c.09.74-.71,1.27-1.35.9Z" style="fill: #00563c;"/>
    <path d="M120.6,98.4l-13.78,7.96c-.52.3-.52,1.05,0,1.35l15.92,9.19c.56.32,1.24-.13,1.16-.77l-2.13-17.15c-.07-.55-.68-.86-1.16-.58Z" style="fill: #d2d49b;"/>
  </g>
  <path d="M266.14,192,246.05,192,266.14,192l13.27-7.66c.79-.45.49-1.65-.42-1.69l-49.26-2.04c-.95-.04-1.31,1.22-.49,1.69l16.81,9.71M250.57,192.01l-11.65-6.72c-.82-.47-.46-1.73.49-1.69l29.9,1.24c.91.04,1.2,1.24.42,1.69l-9.48,5.47" style="fill: #00563c;"/>
  <path d="M259.64,192.02l7.21-4.16c.63-.36.39-1.33-.33-1.36l-23.99-.99c-.76-.03-1.05.98-.39,1.36l8.92,5.15" style="fill: #d2d49b;"/>
  <path d="M251.05,192.01l-8.92-5.15c-.29-.17-.38-.44-.35-.7h0v-39.04h25.45v39.95h-.02c.06.29-.04.6-.34.78l-7.21,4.16" style="fill: url(#linear-gradient-4);"/>
  <path d="M201.25,167.01c-.13,0-.26-.03-.37-.1l-10.59-6.11c-.23-.13-.37-.38-.37-.65s.14-.51.37-.65h0l9.1-5.25c.23-.13.51-.13.75,0l10.59,6.11c.23.13.37.38.37.65s-.14.51-.37.65l-9.1,5.25c-.12.07-.25.1-.37.1ZM191.14,160.16l10.11,5.84,8.62-4.98-10.11-5.84-8.62,4.98ZM210.23,160.81h0,0ZM190.78,160.36h0s0,0,0,0ZM199.88,155.11h0,0Z" style="fill: #151919;"/>
  <path d="M336,154.28l-5.46,3.09c-.11.06-.24.1-.37.1s-.26-.03-.37-.1l-10.59-6.11c-.23-.13-.37-.38-.37-.65s.14-.51.37-.65h0s16.8-9.5,16.8-9.5M330.06,156.51s0,0,0,0h0ZM336,141.6l-15.93,9.01,10.11,5.83,5.84-3.3" style="fill: #151919;"/>
  <path d="M201.25,166.72c-.13,0-.26-.03-.37-.1l-10.59-6.11c-.23-.13-.37-.38-.37-.65s.14-.51.37-.65h0l9.1-5.25c.23-.13.51-.13.75,0l10.59,6.11c.23.13.37.38.37.65s-.14.51-.37.65l-9.1,5.25c-.12.07-.25.1-.37.1ZM191.14,159.86l10.11,5.84,8.62-4.98-10.11-5.84-8.62,4.98ZM210.23,160.51h0,0ZM190.78,160.07h0s0,0,0,0ZM199.88,154.81h0,0Z" style="fill: #00563c;"/>
  <path d="M305.19,168.51s-.09-.01-.13-.03l-4.13-2.31c-.08-.05-.13-.13-.13-.22s.05-.17.13-.22h0s15.62-8.23,15.62-8.23c.08-.04.17-.04.25,0l4.13,2.31c.08.04.13.13.13.22s-.05.17-.13.22l-15.62,8.23s-.08.03-.12.03Z" style="fill: #151919;"/>
  <path d="M330.06,156.21s0,0,0,0h0ZM336,153.98l-5.46,3.09c-.11.06-.24.1-.37.1s-.26-.03-.37-.1l-10.59-6.11c-.23-.13-.37-.38-.37-.65s.14-.51.37-.65h0s16.78-9.49,16.78-9.49v1.12s-15.93,9.02-15.93,9.02l10.11,5.83,5.83-3.3v1.13Z" style="fill: #00563c;"/>
  <path d="M219.32,83.62l76.43,46.73-23.55,14.23-76.43-46.73,23.55-14.23M219.33,82.03l-.71.43-23.55,14.23-1.92,1.16,1.92,1.17,76.43,46.73.71.43.71-.43,23.55-14.23,1.92-1.16-1.92-1.17-76.43-46.73-.71-.43h0Z" style="fill: #151919;"/>
  <path d="M304.75,167.73s0,0,0,0h0Z" style="fill: #1e3727;"/>
  <path d="M320.93,159.51l-4.13-2.31c-.08-.04-.17-.04-.25,0l-15.62,8.23h0c-.08.05-.13.13-.13.22,0,.09.05.17.13.22l4.13,2.31s.08.03.13.03.09-.01.12-.03l15.62-8.23c.08-.04.13-.13.13-.22s-.05-.17-.13-.22ZM317.76,160.86l-10.19,5.38c-.08.04-.18.04-.26,0l-2.87-1.66c-.18-.11-.18-.37,0-.47l10.19-5.38c.08-.04.18-.04.26,0l2.87,1.66c.18.11.18.37,0,.47Z" style="fill: #00563c;"/>
  <path d="M314.67,159.16c-.07-.04-.15-.04-.22,0l-9.38,5c-.16.08-.17.31,0,.4l2.47,1.43c.07.04.15.04.22,0l9.38-5c.16-.08.17-.31,0-.4l-2.47-1.43Z" style="fill: #d2d49b;"/>
  <path d="M317.26,151.66v9.19s0,.06-.03.09c0,.05-.05.09-.1.12l-9.37,5c-.07.03-.16.03-.23,0l-2.47-1.43c-.09-.05-.13-.14-.12-.22v-12.74h12.32Z" style="fill: url(#linear-gradient-5);"/>
  <path d="M317.26,160.85v.08h-.03s.03-.05.03-.08Z" style="fill: url(#linear-gradient-6);"/>
  <path d="M316.86,157.57h0s0,0,0,0Z" style="fill: #1e3727;"/>
  <path d="M316.78,157.57s0,0,0,0h0Z" style="fill: #1e3727;"/>
  <path d="M123.9,72.38v43.77c.08.64-.61,1.09-1.16.77l-15.92-9.19c-.27-.16-.39-.43-.39-.7v-34.65h17.48Z" style="fill: url(#linear-gradient-7);"/>
  <path d="M224.7,192L93.9,116.38s-2.85-1.89-3.46-2.74c-.38-.53-.68-2.39-.68-2.39v-5.8s-.12,1.43.68,2.39,3.46,2.74,3.46,2.74l141.19,81.41" style="fill: #102700;"/>
  <polyline points="278.71 192 336 158.93 336 164.84 288.96 192" style="fill: #102700;"/>
  <polygon points="219.32 83.28 295.75 130.01 272.2 144.24 195.77 97.51 219.32 83.28" style="fill: url(#linear-gradient-8);"/>
  <polygon points="219.32 83.28 219.32 111.91 195.77 97.51 219.32 83.28" style="fill: url(#linear-gradient-9);"/>
  <path d="M219.32,83.28l76.43,46.73-23.55,14.23-76.43-46.73,23.55-14.23M219.33,81.68l-.71.43-23.55,14.23-1.92,1.16,1.92,1.17,76.43,46.73.71.43.71-.43,23.55-14.23,1.92-1.16-1.92-1.17-76.43-46.73-.71-.43h0Z" style="fill: #00563c;"/>
  <polygon points="237.88 0 290.27 30.24 271.93 40.83 203.25 1.17 205.29 0 237.88 0" style="fill: url(#linear-gradient-10);"/>
  <polygon points="236.27 0 236.27 5.59 229.23 9.65 229.23 0 236.27 0" style="fill: #002d18;"/>
  <polygon points="265.34 0 265.34 30.5 257.23 25.82 257.23 0 265.34 0" style="fill: url(#linear-gradient-11);"/>
  <path d="M179.62,144.06c0,.1-.07.2-.19.27-.13.07-.3.11-.47.11-.11,0-.23-.02-.34-.04l-13.25,7.38v2.8l-.55-.32v-2.8l13.3-7.41s-.03-.08-.03-.12c0-.11.07-.2.19-.27.28-.16.76-.14,1.08.04.17.1.27.23.27.36Z" style="fill: #13dd8d;"/>
  <path d="M181.73,145.54c0,.1-.07.2-.19.27-.13.07-.3.11-.47.11-.11,0-.23-.02-.34-.04l-12.93,7.31v2.84s-.55-.32-.55-.32v-2.83s12.98-7.34,12.98-7.34c-.02-.04-.03-.08-.03-.12,0-.11.07-.2.19-.27.28-.16.76-.14,1.08.04.17.1.27.23.27.36Z" style="fill: #13dd8d;"/>
  <path d="M184.08,146.88c0,.1-.07.2-.19.27-.13.07-.3.11-.47.11-.11,0-.23-.02-.34-.04l-12.88,7.38v2.79s-.55-.32-.55-.32v-2.78s12.93-7.4,12.93-7.4c-.02-.04-.03-.08-.03-.12,0-.11.07-.2.19-.27.28-.16.76-.14,1.08.04.17.1.27.23.27.36Z" style="fill: #13dd8d;"/>
  <path d="M332.3,119.7c0-14.11-10.34-28.34-28.44-39.27l16.97-9.8-.98-.57-16.96,9.78c-.23-.12-.45-.27-.68-.39-36.07-20.82-90.79-23.14-122.17-5.2l-19.67-11.34-.98.56,19.67,11.36c-13.3,7.9-20.62,18.73-20.62,30.56,0,14.54,10.98,29.21,30.1,40.25.05.04.12.07.18.11l-16.89,9.76-.02,2.78.98.57.02-2.78,16.92-9.76c19.6,10.98,44.46,16.59,68.05,16.59,19.82,0,38.76-3.96,52.94-12.08l19.66,11.35.94-.59-19.62-11.33c13.3-7.91,20.61-18.74,20.61-30.57ZM310.46,149.86c-14.06,8.12-32.92,12.09-52.69,12.09-23.89,0-49.11-5.81-68.75-17.15-18.81-10.86-29.61-25.22-29.61-39.39,0-11.68,7.41-22.39,20.86-30.14,14.07-8.12,32.93-12.1,52.7-12.1,23.88,0,49.09,5.81,68.74,17.15,18.81,10.86,29.6,25.22,29.6,39.39,0,11.68-7.4,22.39-20.85,30.15Z" style="fill: #00563c;"/>
  <polygon points="271.93 40.7 271.93 105.5 203.25 65.84 203.25 1.02 271.93 40.7" style="fill: url(#linear-gradient-12);"/>
  <polygon points="271.93 105.5 271.93 40.7 290.27 30.12 290.27 94.91 271.93 105.5" style="fill: url(#linear-gradient-13);"/>
  <polygon points="272.38 0 272.38 26.44 265.34 30.5 265.34 0 272.38 0" style="fill: #004025;"/>
  <g>
    <polyline points="203.25 36.1 204.1 36.1 203.25 33.82" style="fill: none; stroke: #fff; stroke-miterlimit: 10; stroke-width: .75px;"/>
    <polygon points="212.86 14.29 207.23 14.29 207.23 36.1 222.97 36.1 222.97 31.88 212.86 31.88 212.86 14.29" style="fill: none; stroke: #fff; stroke-miterlimit: 10; stroke-width: .75px;"/>
    <polygon points="246.29 14.29 239.77 14.29 231.97 24.17 231.97 14.29 226.35 14.29 226.35 36.1 231.97 36.1 231.97 28.98 233.28 27.37 239.8 36.1 246.71 36.1 237.76 24.38 246.29 14.29" style="fill: none; stroke: #fff; stroke-miterlimit: 10; stroke-width: .75px;"/>
    <polygon points="249.48 36.1 265.26 36.1 265.26 31.88 255.07 31.88 255.07 26.49 264.52 26.49 264.52 22.27 255.07 22.27 255.07 18.51 265.26 18.51 265.26 14.29 249.48 14.29 249.48 36.1" style="fill: none; stroke: #fff; stroke-miterlimit: 10; stroke-width: .75px;"/>
    <path d="M272.38,14.29h-2.4v21.81h5.6v-8h2.61l5.93,8h6.16v-.92l-6.57-8.43c.1-.05.19-.11.29-.16" style="fill: none; stroke: #fff; stroke-miterlimit: 10; stroke-width: .75px;"/>
  </g>
  <polygon points="229.24 0 229.24 9.66 221.13 4.98 221.13 0 229.24 0" style="fill: url(#linear-gradient-14);"/>
  <g>
    <path d="M13.47,48.6c0,.34-.08.68-.24,1.01s-.38.61-.67.84c-.31.25-.68.45-1.09.59s-.92.21-1.5.21c-.63,0-1.19-.06-1.7-.18s-1.01-.29-1.53-.52v-1.45h.08c.44.37.95.65,1.53.85s1.12.3,1.63.3c.72,0,1.28-.13,1.68-.4s.6-.63.6-1.08c0-.39-.09-.67-.28-.86s-.48-.33-.86-.43c-.29-.08-.61-.14-.95-.19s-.7-.12-1.09-.19c-.77-.16-1.35-.44-1.72-.84s-.56-.91-.56-1.55c0-.73.31-1.33.93-1.8s1.4-.7,2.35-.7c.61,0,1.18.06,1.69.18s.96.26,1.36.43v1.37h-.08c-.33-.28-.77-.51-1.31-.7s-1.09-.28-1.66-.28c-.62,0-1.12.13-1.5.39s-.57.59-.57,1c0,.36.09.65.28.86s.52.37.99.47c.25.05.61.12,1.07.2s.85.16,1.17.24c.65.17,1.14.43,1.46.78s.49.83.49,1.46Z" style="fill: #ffedc3;"/>
    <path d="M20.82,47.83c0,1.07-.27,1.91-.82,2.53s-1.28.93-2.2.93-1.66-.31-2.21-.93-.82-1.46-.82-2.53.27-1.91.82-2.53,1.28-.93,2.21-.93,1.65.31,2.2.93.82,1.46.82,2.53ZM19.68,47.83c0-.85-.17-1.48-.5-1.89s-.79-.62-1.38-.62-1.06.21-1.39.62-.5,1.04-.5,1.89.17,1.44.5,1.87.79.64,1.39.64,1.05-.21,1.38-.63.5-1.04.5-1.87Z" style="fill: #ffedc3;"/>
    <path d="M26.05,43.04h-.06c-.12-.04-.28-.07-.47-.11s-.37-.06-.52-.06c-.47,0-.82.1-1.03.31s-.32.59-.32,1.13v.22h1.99v.93h-1.95v5.62h-1.1v-5.62h-.74v-.93h.74v-.22c0-.78.19-1.37.58-1.79s.95-.62,1.68-.62c.25,0,.47.01.67.04s.38.05.54.08v1.01Z" style="fill: #ffedc3;"/>
    <path d="M30.14,51.04c-.21.05-.43.1-.68.13s-.46.05-.65.05c-.67,0-1.18-.18-1.52-.54s-.52-.94-.52-1.73v-3.48h-.74v-.93h.74v-1.88h1.1v1.88h2.27v.93h-2.27v2.98c0,.34,0,.61.02.81s.07.37.16.54c.09.16.2.27.35.34s.38.11.69.11c.18,0,.37-.03.56-.08s.34-.1.42-.13h.06v.99Z" style="fill: #ffedc3;"/>
    <path d="M39.7,44.55l-1.71,6.54h-1.02l-1.68-5.04-1.67,5.04h-1.01l-1.72-6.54h1.15l1.2,5.07,1.63-5.07h.91l1.68,5.07,1.14-5.07h1.11Z" style="fill: #ffedc3;"/>
    <path d="M46.26,51.1h-1.1v-.7c-.1.07-.23.16-.4.28s-.33.21-.48.28c-.18.09-.39.17-.63.23s-.52.09-.84.09c-.59,0-1.09-.2-1.5-.59s-.62-.89-.62-1.49c0-.5.11-.9.32-1.2s.52-.55.91-.72c.4-.18.88-.29,1.44-.36s1.16-.11,1.8-.14v-.17c0-.25-.04-.46-.13-.62s-.21-.29-.38-.39c-.16-.09-.34-.15-.56-.18s-.45-.05-.69-.05c-.29,0-.61.04-.97.11s-.72.19-1.1.33h-.06v-1.12c.21-.06.53-.12.93-.19s.81-.11,1.2-.11c.46,0,.86.04,1.2.11s.64.21.89.39c.25.18.43.41.56.7s.19.64.19,1.06v4.44ZM45.17,49.48v-1.82c-.34.02-.73.05-1.19.09s-.82.1-1.08.17c-.32.09-.57.23-.77.42s-.29.45-.29.78c0,.38.11.66.34.85s.57.28,1.04.28c.39,0,.74-.08,1.06-.23s.62-.33.89-.54Z" style="fill: #ffedc3;"/>
    <path d="M52.47,45.75h-.06c-.16-.04-.32-.07-.48-.08s-.34-.03-.55-.03c-.34,0-.67.08-.98.23s-.62.34-.91.58v4.65h-1.1v-6.54h1.1v.97c.44-.35.82-.6,1.16-.75s.67-.22,1.02-.22c.19,0,.33,0,.42.01s.21.03.39.06v1.13Z" style="fill: #ffedc3;"/>
    <path d="M58.98,47.94h-4.82c0,.4.06.75.18,1.05s.29.54.5.74c.2.19.44.33.72.42s.59.14.92.14c.45,0,.89-.09,1.34-.27s.77-.35.96-.52h.06v1.2c-.37.16-.75.29-1.14.39s-.79.16-1.22.16c-1.09,0-1.93-.29-2.54-.88s-.91-1.42-.91-2.5.29-1.92.88-2.55,1.35-.94,2.31-.94c.88,0,1.56.26,2.04.77s.72,1.25.72,2.2v.6ZM57.91,47.09c0-.58-.15-1.03-.44-1.34s-.72-.47-1.31-.47-1.06.17-1.41.52-.55.78-.59,1.29h3.75Z" style="fill: #ffedc3;"/>
    <path d="M70.71,51.1h-5.75v-8.72h5.75v1.03h-4.59v2.39h4.59v1.03h-4.59v3.24h4.59v1.03Z" style="fill: #ffedc3;"/>
    <path d="M77.93,51.1h-1.1v-3.73c0-.3-.02-.58-.05-.85s-.1-.47-.19-.62c-.1-.16-.24-.29-.42-.37s-.42-.12-.71-.12-.62.07-.94.22-.64.34-.94.57v4.89h-1.1v-6.54h1.1v.73c.34-.29.7-.51,1.07-.67s.74-.24,1.13-.24c.71,0,1.25.21,1.62.64s.56,1.04.56,1.84v4.25Z" style="fill: #ffedc3;"/>
    <path d="M85.36,50.35c0,1.11-.25,1.92-.76,2.44s-1.28.78-2.33.78c-.35,0-.69-.02-1.02-.07s-.66-.12-.98-.21v-1.12h.06c.18.07.46.16.86.26s.78.16,1.17.16.69-.04.93-.13.44-.21.57-.38c.14-.15.23-.34.29-.55s.09-.46.09-.72v-.6c-.33.27-.65.46-.95.59s-.69.2-1.16.2c-.78,0-1.4-.28-1.86-.85s-.69-1.36-.69-2.39c0-.56.08-1.05.24-1.46s.37-.76.65-1.06c.25-.28.56-.49.93-.65s.72-.23,1.08-.23c.38,0,.7.04.95.11s.53.19.81.35l.07-.28h1.03v5.8ZM84.26,49.3v-3.57c-.29-.13-.57-.23-.82-.28s-.5-.08-.75-.08c-.61,0-1.08.2-1.43.61s-.52,1-.52,1.77.13,1.29.39,1.67.69.57,1.28.57c.32,0,.64-.06.96-.18s.62-.29.89-.5Z" style="fill: #ffedc3;"/>
    <path d="M88.71,43.45h-1.24v-1.14h1.24v1.14ZM88.64,51.1h-1.1v-6.54h1.1v6.54Z" style="fill: #ffedc3;"/>
    <path d="M96.29,51.1h-1.1v-3.73c0-.3-.02-.58-.05-.85s-.1-.47-.19-.62c-.1-.16-.24-.29-.42-.37s-.42-.12-.71-.12-.62.07-.94.22-.64.34-.94.57v4.89h-1.1v-6.54h1.1v.73c.34-.29.7-.51,1.07-.67s.74-.24,1.13-.24c.71,0,1.25.21,1.62.64s.56,1.04.56,1.84v4.25Z" style="fill: #ffedc3;"/>
    <path d="M103.89,47.94h-4.82c0,.4.06.75.18,1.05s.29.54.5.74c.2.19.44.33.72.42s.59.14.92.14c.45,0,.89-.09,1.34-.27s.77-.35.96-.52h.06v1.2c-.37.16-.75.29-1.14.39s-.79.16-1.22.16c-1.09,0-1.93-.29-2.54-.88s-.91-1.42-.91-2.5.29-1.92.88-2.55,1.35-.94,2.31-.94c.88,0,1.56.26,2.04.77s.72,1.25.72,2.2v.6ZM102.82,47.09c0-.58-.15-1.03-.44-1.34s-.72-.47-1.31-.47-1.06.17-1.41.52-.55.78-.59,1.29h3.75Z" style="fill: #ffedc3;"/>
    <path d="M111.04,47.94h-4.82c0,.4.06.75.18,1.05s.29.54.5.74c.2.19.44.33.72.42s.59.14.92.14c.45,0,.89-.09,1.34-.27s.77-.35.96-.52h.06v1.2c-.37.16-.75.29-1.14.39s-.79.16-1.22.16c-1.09,0-1.93-.29-2.54-.88s-.91-1.42-.91-2.5.29-1.92.88-2.55,1.35-.94,2.31-.94c.88,0,1.56.26,2.04.77s.72,1.25.72,2.2v.6ZM109.97,47.09c0-.58-.15-1.03-.44-1.34s-.72-.47-1.31-.47-1.06.17-1.41.52-.55.78-.59,1.29h3.75Z" style="fill: #ffedc3;"/>
    <path d="M116.8,45.75h-.06c-.16-.04-.32-.07-.48-.08s-.34-.03-.55-.03c-.34,0-.67.08-.98.23s-.62.34-.91.58v4.65h-1.1v-6.54h1.1v.97c.44-.35.82-.6,1.16-.75s.67-.22,1.02-.22c.19,0,.33,0,.42.01s.21.03.39.06v1.13Z" style="fill: #ffedc3;"/>
  </g>
  <g>
    <path d="M20.1,29.7c0,.96-.17,1.85-.51,2.69s-.85,1.54-1.52,2.12c-.71.62-1.57,1.09-2.58,1.43s-2.25.51-3.74.51c-1.01,0-1.95-.04-2.84-.11-.89-.07-1.67-.18-2.34-.31v-4.41h.53c.47.18.96.34,1.46.49s1.16.23,1.95.23c1.03,0,1.81-.14,2.37-.41s.94-.65,1.18-1.14c.22-.48.35-1,.38-1.58.03-.57.04-1.3.04-2.19v-8.7h-5v-4.01h10.62v15.41Z" style="fill: #fff; stroke: #fff; stroke-miterlimit: 10; stroke-width: .75px;"/>
    <path d="M46.6,25.2c0,3.48-1,6.24-2.99,8.28s-4.75,3.07-8.26,3.07-6.25-1.02-8.25-3.07-2.99-4.81-2.99-8.28,1-6.28,2.99-8.31,4.74-3.05,8.25-3.05,6.25,1.02,8.25,3.05,3,4.81,3,8.31ZM39.15,30.72c.55-.66.95-1.45,1.22-2.35s.4-1.97.4-3.19c0-1.31-.15-2.42-.45-3.34s-.7-1.66-1.19-2.23c-.5-.59-1.07-1.01-1.72-1.27s-1.33-.4-2.03-.4-1.38.13-2.01.38-1.21.67-1.74,1.26c-.49.55-.89,1.3-1.19,2.26s-.46,2.08-.46,3.35.15,2.4.45,3.32.69,1.66,1.18,2.23,1.06,1,1.71,1.27,1.34.41,2.07.41,1.41-.14,2.07-.42,1.23-.71,1.71-1.3Z" style="fill: #fff; stroke: #fff; stroke-miterlimit: 10; stroke-width: .75px;"/>
    <path d="M68.36,29.25c0,2.15-.91,3.89-2.73,5.24s-4.29,2.01-7.42,2.01c-1.81,0-3.38-.16-4.72-.48s-2.6-.72-3.77-1.21v-5.23h.62c1.16.93,2.46,1.64,3.9,2.14s2.82.75,4.15.75c.34,0,.79-.03,1.35-.09s1.01-.16,1.36-.29c.43-.18.78-.4,1.06-.66s.42-.65.42-1.17c0-.48-.2-.89-.61-1.24s-1-.61-1.78-.8c-.82-.2-1.69-.38-2.6-.55s-1.77-.39-2.57-.65c-1.84-.6-3.16-1.4-3.96-2.42s-1.21-2.29-1.21-3.8c0-2.03.91-3.69,2.73-4.97s4.16-1.93,7.02-1.93c1.44,0,2.85.14,4.26.42s2.61.63,3.64,1.05v5.02h-.6c-.88-.7-1.96-1.29-3.23-1.77s-2.58-.71-3.9-.71c-.47,0-.94.03-1.4.1s-.91.18-1.34.36c-.38.15-.71.37-.98.67s-.41.64-.41,1.02c0,.58.22,1.02.66,1.33s1.27.59,2.49.84c.8.17,1.57.33,2.31.48s1.53.37,2.38.64c1.67.55,2.9,1.29,3.7,2.23s1.19,2.17,1.19,3.67Z" style="fill: #fff; stroke: #fff; stroke-miterlimit: 10; stroke-width: .75px;"/>
    <path d="M87.99,36.1h-15.78V14.29h15.78v4.22h-10.18v3.76h9.45v4.22h-9.45v5.39h10.18v4.22Z" style="fill: #fff; stroke: #fff; stroke-miterlimit: 10; stroke-width: .75px;"/>
    <path d="M110.71,21.17c0,.98-.17,1.93-.51,2.86s-.83,1.72-1.46,2.35c-.87.86-1.84,1.51-2.91,1.95s-2.4.66-3.99.66h-3.5v7.1h-5.62V14.29h9.26c1.39,0,2.56.12,3.51.36s1.79.6,2.53,1.08c.88.58,1.55,1.31,2.01,2.21s.7,1.98.7,3.24ZM104.89,21.3c0-.61-.17-1.14-.5-1.59s-.72-.75-1.16-.93c-.59-.23-1.16-.36-1.71-.39s-1.3-.04-2.23-.04h-.97v6.52h1.61c.96,0,1.75-.06,2.37-.18.62-.12,1.14-.35,1.56-.7.36-.31.62-.68.78-1.12.16-.43.24-.96.24-1.59Z" style="fill: #fff; stroke: #fff; stroke-miterlimit: 10; stroke-width: .75px;"/>
    <path d="M134.25,36.1h-5.62v-9.61h-8.31v9.61h-5.62V14.29h5.62v7.98h8.31v-7.98h5.62v21.81Z" style="fill: #fff; stroke: #fff; stroke-miterlimit: 10; stroke-width: .75px;"/>
    <path d="M180.17,14.29l-5.87,21.81h-6.24l-3.9-14.21-3.81,14.21h-6.22l-5.87-21.81h5.87l3.35,15.01,4.02-15.01h5.61l3.82,15.01,3.51-15.01h5.73Z" style="fill: #fff; stroke: #fff; stroke-miterlimit: 10; stroke-width: .75px;"/>
    <path d="M204.07,36.1h-5.81l-1.52-4.41h-8.07l-1.52,4.41h-5.67l8.06-21.81h6.47l8.06,21.81ZM195.39,27.69l-2.68-7.81-2.68,7.81h5.37Z" style="fill: #fff; stroke: #fff; stroke-miterlimit: 10; stroke-width: .75px;"/>
    <path d="M222.94,36.1h-15.73V14.29h5.62v17.59h10.11v4.22Z" style="fill: #fff; stroke: #fff; stroke-miterlimit: 10; stroke-width: .75px;"/>
    <path d="M246.69,36.1h-6.91l-6.52-8.73-1.3,1.61v7.12h-5.62V14.29h5.62v9.88l7.79-9.88h6.52l-8.53,10.09,8.95,11.72Z" style="fill: #fff; stroke: #fff; stroke-miterlimit: 10; stroke-width: .75px;"/>
    <path d="M265.23,36.1h-15.78V14.29h15.78v4.22h-10.18v3.76h9.45v4.22h-9.45v5.39h10.18v4.22Z" style="fill: #fff; stroke: #fff; stroke-miterlimit: 10; stroke-width: .75px;"/>
    <path d="M290.95,36.1h-6.87l-5.93-8h-2.61v8h-5.6V14.29h9.43c1.29,0,2.4.07,3.33.22s1.8.46,2.61.95c.82.49,1.47,1.12,1.96,1.9.48.78.72,1.75.72,2.92,0,1.61-.37,2.92-1.12,3.94-.75,1.02-1.81,1.86-3.2,2.53l7.28,9.35ZM282.18,20.97c0-.55-.11-1.02-.34-1.41s-.61-.7-1.16-.92c-.38-.16-.83-.25-1.33-.29s-1.1-.05-1.77-.05h-2.04v5.87h1.73c.9,0,1.65-.04,2.26-.13s1.11-.29,1.52-.6c.39-.3.68-.64.86-1,.18-.37.27-.86.27-1.47Z" style="fill: #fff; stroke: #fff; stroke-miterlimit: 10; stroke-width: .75px;"/>
  </g>
  <g>
    <polygon points="203.21 33.82 203.21 36.1 204.05 36.1 203.21 33.82" style="fill: #6ac281;"/>
    <polygon points="212.81 14.29 207.18 14.29 207.18 36.1 222.92 36.1 222.92 31.88 212.81 31.88 212.81 14.29" style="fill: #6ac281;"/>
    <polygon points="246.24 14.29 239.72 14.29 231.92 24.17 231.92 14.29 226.3 14.29 226.3 36.1 231.92 36.1 231.92 28.98 233.23 27.37 239.75 36.1 246.66 36.1 237.71 24.38 246.24 14.29" style="fill: #6ac281;"/>
    <polygon points="249.43 36.1 265.21 36.1 265.21 31.88 255.03 31.88 255.03 26.49 264.47 26.49 264.47 22.27 255.03 22.27 255.03 18.51 265.21 18.51 265.21 14.29 249.43 14.29 249.43 36.1" style="fill: #6ac281;"/>
    <path d="M269.92,36.1h5.6v-8h2.61l5.93,8h6.16v-.92l-6.57-8.43c.1-.05.19-.11.29-.16l-4.42-2.55s0,0,0,0c-.61.09-1.36.13-2.26.13h-1.73v-2.44l-3.19-1.84v-5.6h-2.4v21.81Z" style="fill: #6ac281;"/>
  </g>
  <rect y="62.82" width="143.11" height="114.14" style="opacity: .47;"/>
  <path d="M44.6,78.71v22.24h22.24v-22.24h-22.24ZM33.48,67.59h44.48v44.48h-44.48v-44.48ZM44.6,138.02v22.24h22.24v-22.24h-22.24ZM33.48,126.9h44.48v44.48h-44.48v-44.48ZM126.15,78.71h-22.24v22.24h22.24v-22.24ZM103.91,67.59h33.36v44.48h-44.48v-44.48h11.12ZM122.44,163.97v7.41h-7.41v-7.41h7.41ZM129.85,163.97h7.41v7.41h-7.41v-7.41ZM137.27,126.9v29.65h-22.24v-7.41h-7.41v22.24h-14.83v-44.48h22.24v7.41h14.83v-7.41h7.41ZM61.28,84.27v11.12h-11.12v-11.12h11.12ZM50.16,143.58h11.12v11.12h-11.12v-11.12ZM120.59,84.27v11.12h-11.12v-11.12h11.12Z" style="fill: #fff;"/>
</svg>