<?xml version="1.0" encoding="UTF-8"?>
<svg id="Layer_1" xmlns="http://www.w3.org/2000/svg" xmlns:xlink="http://www.w3.org/1999/xlink" viewBox="0 0 100 100">
  <defs>
    <linearGradient id="linear-gradient" x1="1.97" y1="50" x2="57.22" y2="50" gradientUnits="userSpaceOnUse">
      <stop offset="0" stop-color="#f951ff"/>
      <stop offset="1" stop-color="#ffa600"/>
    </linearGradient>
    <linearGradient id="linear-gradient-2" x1="35.25" x2="77.63" xlink:href="#linear-gradient"/>
    <linearGradient id="linear-gradient-3" x1="55.66" x2="98.03" xlink:href="#linear-gradient"/>
  </defs>
  <polygon points="57.22 24.19 30.36 75.81 18.19 75.81 1.97 44.66 14.67 44.65 24.28 63.11 38.22 36.31 18.41 36.31 24.72 24.19 57.22 24.19" style="fill: url(#linear-gradient);"/>
  <polygon points="77.63 24.19 50.76 75.81 38.6 75.81 35.25 69.39 41.61 57.19 44.68 63.11 64.92 24.19 77.63 24.19" style="fill: url(#linear-gradient-2);"/>
  <polygon points="98.03 24.19 71.17 75.81 59.01 75.81 55.66 69.39 62.01 57.19 65.09 63.11 85.33 24.19 98.03 24.19" style="fill: url(#linear-gradient-3);"/>
</svg>