<?xml version="1.0" encoding="UTF-8"?>
<svg xmlns="http://www.w3.org/2000/svg" version="1.1" viewBox="0 0 600 200">
  <defs>
    <style>
      .cls-1 {
        font-family: Calibri-Light, Calibri;
        font-size: 103.66px;
        font-weight: 300;
      }

      .cls-1, .cls-2, .cls-3, .cls-4, .cls-5, .cls-6 {
        fill: #90a1b9;
      }

      .cls-2 {
        fill-rule: evenodd;
      }

      .cls-3 {
        font-family: DoppioOne-Regular, 'Doppio One';
        font-size: 97.54px;
      }

      .cls-4 {
        font-family: ArialMT, Arial;
        font-size: 92.08px;
      }

      .cls-4, .cls-5 {
        isolation: isolate;
      }

      .cls-7 {
        display: none;
      }
    </style>
  </defs>
  <!-- Generator: Adobe Illustrator 28.7.1, SVG Export Plug-In . SVG Version: 1.2.0 Build 142)  -->
  <g>
    <g id="Layer_1" class="cls-7">
      <g>
        <path class="cls-6" d="M366.86,59.13h70.68v13.04h-28.04v68.63h-14.02v-68.63h-28.62v-13.04Z"/>
        <path class="cls-6" d="M250.62,59.13v13.04h-56.65v20.99h45.56v13.04h-45.56v21.55h56.65v13.04h-70.67v-68.63h0v-13.04h70.68Z"/>
        <path class="cls-6" d="M285.91,59.17h-18.35l65.71,81.67h18.4l-32.86-40.81,32.81-40.8-18.35.03-23.65,29.37-23.72-29.46Z"/>
        <path class="cls-6" d="M304.74,117.51l-9.19-11.42-28.04,34.82h18.4l18.83-23.4Z"/>
        <path class="cls-2" d="M180.44,140.81L114.64,59.1h-17.52v81.67h14.02v-64.22l51.69,64.25h17.61Z"/>
        <path class="cls-6" d="M440.68,140.31c-1.03,0-1.9-.36-2.63-1.07-.73-.71-1.09-1.57-1.08-2.59,0-.99.35-1.84,1.08-2.56s1.6-1.07,2.63-1.07,1.85.36,2.58,1.07c.74.71,1.11,1.56,1.12,2.56-.01.67-.18,1.29-.52,1.84-.35.56-.8,1-1.36,1.32-.55.33-1.16.5-1.82.5Z"/>
        <path class="cls-6" d="M464.61,105.9h6.21v23.93c0,2.2-.49,4.08-1.42,5.66-.94,1.58-2.24,2.79-3.91,3.64-1.66.84-3.61,1.27-5.82,1.27-2.02,0-3.84-.37-5.45-1.08-1.61-.71-2.9-1.78-3.84-3.18-.95-1.4-1.42-3.15-1.42-5.25h6.22c0,.92.22,1.71.62,2.38s.95,1.17,1.65,1.53c.71.36,1.53.53,2.45.53,1,0,1.85-.21,2.55-.63.69-.41,1.23-1.03,1.6-1.85.36-.81.55-1.83.56-3.02v-23.93Z"/>
        <path class="cls-6" d="M496.38,115.26c-.15-1.45-.82-2.58-1.98-3.39-1.17-.81-2.68-1.22-4.53-1.22-1.3,0-2.42.2-3.35.58-.93.39-1.65.92-2.15,1.58-.49.66-.74,1.42-.76,2.27,0,.71.17,1.33.5,1.84.33.52.78.96,1.36,1.32.57.36,1.21.66,1.9.91.7.24,1.41.45,2.11.62l3.24.8c1.3.3,2.57.7,3.77,1.22,1.21.51,2.3,1.15,3.26,1.93.96.78,1.72,1.71,2.28,2.81.56,1.1.85,2.38.85,3.86,0,1.99-.51,3.74-1.55,5.26-1.03,1.51-2.53,2.69-4.48,3.54-1.95.84-4.3,1.27-7.08,1.27s-5.02-.41-6.98-1.24c-1.98-.81-3.51-2.01-4.63-3.58-1.11-1.57-1.71-3.49-1.8-5.75h6.16c.09,1.18.47,2.16,1.11,2.96.65.79,1.51,1.37,2.56,1.76,1.05.38,2.23.58,3.53.58s2.56-.21,3.59-.61c1.03-.4,1.83-.96,2.41-1.69.59-.72.88-1.57.89-2.55,0-.89-.28-1.63-.79-2.21-.52-.58-1.24-1.07-2.17-1.46-.93-.39-2.01-.75-3.25-1.06l-3.93-.99c-2.84-.72-5.09-1.82-6.74-3.29-1.65-1.47-2.47-3.42-2.47-5.86,0-2,.55-3.76,1.66-5.27,1.1-1.51,2.61-2.68,4.52-3.51,1.92-.84,4.08-1.25,6.5-1.25s4.6.41,6.45,1.25c1.85.83,3.31,1.99,4.36,3.47,1.05,1.48,1.61,3.17,1.63,5.09h-6.02Z"/>
      </g>
    </g>
    <g id="Layer_2" class="cls-7">
      <g>
        <path class="cls-6" d="M127.47,55.91h-23.56v72.97h-9.57V55.91h-23.51v-8.66h56.63v8.66Z"/>
        <path class="cls-6" d="M164.64,70.6l-26.81,67.61c-4.78,12.06-11.5,18.1-20.16,18.1-2.43,0-4.45-.24-6.09-.74v-8.37c2.01.68,3.85,1.02,5.52,1.02,4.71,0,8.24-2.8,10.59-8.42l4.66-11.04-22.76-58.16h10.36l15.77,44.85c.19.57.58,2.06,1.2,4.44h.34c.19-.91.57-2.35,1.13-4.32l16.56-44.96s9.68,0,9.68,0Z"/>
        <path class="cls-6" d="M179.91,120.46h-.23v35.23h-9.34v-85.1h9.34v10.25h.23c4.6-7.74,11.3-11.61,20.16-11.61,7.51,0,13.37,2.61,17.58,7.82s6.31,12.21,6.31,20.98c0,9.75-2.36,17.57-7.11,23.43-4.74,5.86-11.24,8.79-19.46,8.79-7.56-.02-13.39-3.27-17.49-9.8ZM179.68,96.96v8.14c0,4.82,1.57,8.9,4.7,12.27,3.12,3.37,7.11,5.04,11.93,5.04,5.65,0,10.09-2.17,13.29-6.49,3.21-4.32,4.81-10.35,4.81-18.04,0-6.49-1.51-11.58-4.5-15.25s-7.06-5.52-12.18-5.52c-5.42,0-9.8,1.89-13.1,5.67-3.3,3.76-4.95,8.48-4.95,14.18Z"/>
        <path class="cls-6" d="M280.6,102.07h-41.16c.15,6.49,1.89,11.5,5.23,15.02,3.34,3.53,7.93,5.29,13.78,5.29,6.56,0,12.6-2.17,18.1-6.49v8.76c-5.12,3.72-11.9,5.59-20.32,5.59s-14.7-2.64-19.41-7.93c-4.71-5.29-7.06-12.74-7.06-22.34,0-9.07,2.57-16.47,7.71-22.16,5.15-5.72,11.53-8.56,19.15-8.56s13.52,2.46,17.7,7.4c4.18,4.94,6.27,11.79,6.27,20.55v4.89h.02ZM271.03,94.16c-.03-5.39-1.34-9.58-3.9-12.58s-6.12-4.5-10.67-4.5-8.14,1.57-11.22,4.73-4.97,7.27-5.7,12.35h31.49Z"/>
        <path class="cls-6" d="M288.76,125.58v-11.27c1.18,1.13,2.59,2.17,4.24,3.08,1.65.91,3.38,1.68,5.21,2.3s3.66,1.12,5.49,1.46c1.85.34,3.55.52,5.1.52,5.38,0,9.41-1.08,12.06-3.27,2.66-2.19,3.98-5.33,3.98-9.42,0-2.2-.44-4.11-1.33-5.75s-2.1-3.12-3.68-4.47-3.42-2.64-5.55-3.87c-2.14-1.23-4.44-2.53-6.9-3.9-2.61-1.44-5.04-2.9-7.29-4.39-2.25-1.47-4.23-3.11-5.88-4.89-1.67-1.78-2.98-3.8-3.93-6.06s-1.42-4.91-1.42-7.93c0-3.72.74-6.95,2.23-9.7s3.45-5.02,5.89-6.8c2.43-1.78,5.2-3.11,8.31-3.98s6.28-1.31,9.5-1.31c7.37,0,12.73.97,16.09,2.9v10.75c-4.4-3.34-10.07-5-16.98-5-1.91,0-3.82.23-5.73.65-1.91.44-3.61,1.15-5.1,2.14-1.49.99-2.7,2.25-3.64,3.82-.94,1.55-1.41,3.45-1.41,5.7,0,2.09.36,3.89,1.07,5.41s1.76,2.9,3.16,4.16c1.39,1.25,3.08,2.46,5.08,3.64,1.99,1.18,4.29,2.46,6.9,3.87,2.67,1.44,5.21,2.96,7.61,4.55s4.5,3.35,6.3,5.29c1.8,1.94,3.24,4.08,4.29,6.43s1.59,5.05,1.59,8.08c0,4.02-.73,7.43-2.15,10.22-1.44,2.78-3.38,5.05-5.83,6.8-2.44,1.75-5.26,3.01-8.47,3.79-3.19.78-6.56,1.17-10.1,1.17-1.18,0-2.64-.1-4.37-.31s-3.51-.52-5.31-.91c-1.81-.4-3.51-.89-5.13-1.47-1.64-.63-2.91-1.3-3.9-2.01Z"/>
        <path class="cls-6" d="M383.71,126.21c-4.48,2.69-9.8,4.05-15.93,4.05-8.31,0-15.02-2.7-20.12-8.11s-7.66-12.42-7.66-21.03c0-9.6,2.75-17.31,8.26-23.14,5.5-5.83,12.84-8.74,22.04-8.74,5.12,0,9.63.96,13.55,2.85v9.57c-4.32-3.04-8.95-4.55-13.89-4.55-5.96,0-10.85,2.14-14.65,6.41s-5.72,9.88-5.72,16.82,1.8,12.22,5.38,16.16c3.58,3.93,8.4,5.93,14.43,5.93,5.08,0,9.86-1.68,14.34-5.07v8.86h-.02Z"/>
        <path class="cls-6" d="M419.83,80.04c-1.64-1.25-3.98-1.88-7.06-1.88-3.98,0-7.32,1.88-9.99,5.63s-4.02,8.87-4.02,15.36v29.71h-9.34v-58.29h9.34v12.01h.23c1.33-4.1,3.35-7.3,6.09-9.58,2.74-2.3,5.78-3.45,9.16-3.45,2.43,0,4.29.26,5.59.79v9.68Z"/>
        <path class="cls-6" d="M430.55,55.8c-1.67,0-3.09-.57-4.27-1.7s-1.76-2.57-1.76-4.32.58-3.19,1.76-4.36c1.18-1.15,2.61-1.73,4.27-1.73s3.16.58,4.36,1.73c1.2,1.17,1.8,2.61,1.8,4.36s-.6,3.09-1.8,4.27c-1.2,1.15-2.66,1.75-4.36,1.75ZM435.1,128.88h-9.34v-58.29h9.34v58.29Z"/>
        <path class="cls-6" d="M450.16,120.46h-.23v35.23h-9.34v-85.1h9.34v10.25h.23c4.6-7.74,11.3-11.61,20.16-11.61,7.51,0,13.37,2.61,17.58,7.82,4.21,5.21,6.31,12.21,6.31,20.98,0,9.75-2.36,17.57-7.11,23.43s-11.24,8.79-19.46,8.79c-7.56-.02-13.39-3.27-17.49-9.8ZM449.93,96.96v8.14c0,4.82,1.57,8.9,4.7,12.27,3.12,3.37,7.11,5.04,11.93,5.04,5.65,0,10.09-2.17,13.29-6.49s4.81-10.35,4.81-18.04c0-6.49-1.51-11.58-4.5-15.25s-7.06-5.52-12.18-5.52c-5.42,0-9.8,1.89-13.1,5.67-3.3,3.76-4.95,8.48-4.95,14.18Z"/>
        <path class="cls-6" d="M529.17,128.32c-2.2,1.21-5.1,1.81-8.71,1.81-10.2,0-15.32-5.7-15.32-17.08v-34.49h-10.02v-7.97h10.02v-14.23l9.34-3.01v17.24h14.68v7.97h-14.68v32.83c0,3.9.66,6.7,1.99,8.37s3.53,2.51,6.61,2.51c2.35,0,4.39-.65,6.09-1.94v7.98Z"/>
      </g>
    </g>
    <g id="Layer_3" class="cls-7">
      <g>
        <path class="cls-2" d="M209.14,128.88v-54.31h6.98l33.19,43.71v-43.71h6.64v54.31h-6.98l-33.19-44.14v44.14h-6.64ZM310,126.72c-4.4,1.64-9.14,2.5-14.14,2.5-19.65,0-29.48-9.4-29.48-28.27,0-17.84,9.48-26.81,28.45-26.81,5.43,0,10.52.78,15.17,2.24v6.03c-4.65-1.81-9.48-2.67-14.4-2.67-14.83,0-22.24,7.07-22.24,21.03,0,15.09,7.33,22.59,21.9,22.59,2.33,0,4.91-.34,7.76-.95v-18.19h6.98v22.5h0ZM321.21,107.93v-33.36h6.98v33.36c0,10.43,5.17,15.69,15.6,15.69s15.6-5.26,15.6-15.69v-33.36h6.98v33.36c0,14.22-7.5,21.38-22.59,21.38s-22.59-7.15-22.59-21.38ZM385.86,74.57v48.62h28.45v5.69h-35.43v-54.31h6.98ZM424.39,128.88h-7.33l26.98-61.46,26.98,61.46h-7.76l-6.98-17.07h-17.93l1.9-5.69h13.71l-10.17-24.57-19.4,47.33h0ZM478.53,128.88v-54.31h23.19c10.34,0,15.52,4.31,15.52,13.02,0,7.07-5.09,12.33-15.17,15.69l18.62,25.6h-9.22l-17.24-24.4v-4.57c10.34-1.64,15.6-5.6,15.6-11.98,0-5-2.84-7.5-8.62-7.5h-15.52v48.45h-7.15Z"/>
        <path class="cls-2" d="M191.99,59.74l-9.22,73.53-47.85,26.47-47.07-26.12-8.53-73.53,55.6-19.83,57.07,19.48ZM135.01,54.23l36.12,77.24-12.33-.26-7.59-17.59h-30.95l-6.98,17.41-12.93.26,34.65-77.07h0ZM124.83,103.45h21.98l-11.72-24.48-10.26,24.48Z"/>
      </g>
    </g>
    <g id="Layer_4">
      <g>
        <g>
          <path class="cls-6" d="M170.52,127.62c-36.61,0-73.66-9.49-73.66-27.63s37.06-27.63,73.66-27.63,73.67,9.49,73.67,27.63-37.06,27.63-73.67,27.63ZM170.52,81.58c-39.35,0-64.46,10.91-64.46,18.42s25.11,18.42,64.46,18.42,64.46-10.91,64.46-18.42-25.11-18.42-64.46-18.42Z"/>
          <path class="cls-6" d="M200.63,165.53c-5.36,0-12.8-2.75-22.85-11.65-10.65-9.44-21.73-23.67-31.19-40.07-18.3-31.7-28.61-68.54-12.91-77.61,5.08-2.92,14.34-3.58,29.57,9.92,10.65,9.44,21.73,23.67,31.19,40.07h0c9.46,16.39,16.25,33.1,19.1,47.04,4.08,19.95-1.11,27.63-6.19,30.57-1.73,1-3.95,1.74-6.72,1.74ZM140.41,43.7c-.88,0-1.59.18-2.12.48-6.5,3.75-3.39,30.95,16.28,65.03,8.98,15.56,19.4,28.98,29.32,37.78,9.95,8.83,16.38,10.27,18.85,8.84,2.48-1.43,4.44-7.73,1.78-20.75-2.66-13-9.07-28.72-18.06-44.28h0c-8.98-15.56-19.39-28.97-29.32-37.78-7.82-6.94-13.47-9.32-16.73-9.32Z"/>
          <path class="cls-6" d="M140.4,165.53c-2.77,0-4.99-.74-6.72-1.74-15.71-9.07-5.4-45.91,12.91-77.61,9.46-16.39,20.54-30.62,31.19-40.07,15.24-13.51,24.49-12.84,29.57-9.92,5.08,2.93,10.27,10.62,6.19,30.57-2.85,13.94-9.64,30.65-19.1,47.04-9.46,16.39-20.54,30.62-31.19,40.07-10.04,8.9-17.48,11.65-22.85,11.65ZM200.62,43.7c-3.26,0-8.91,2.38-16.73,9.32-9.93,8.8-20.34,22.22-29.32,37.78-19.67,34.08-22.78,61.28-16.28,65.03,2.48,1.43,8.91-.02,18.86-8.84,9.93-8.8,20.34-22.22,29.32-37.78h0c8.98-15.56,15.4-31.29,18.06-44.28,2.66-13.02.71-19.31-1.78-20.75-.53-.31-1.24-.48-2.12-.48Z"/>
        </g>
        <circle class="cls-6" cx="170.52" cy="100" r="13.81"/>
        <text class="cls-4" transform="translate(262.6 127.62)"><tspan x="0" y="0">React</tspan></text>
      </g>
    </g>
    <g id="Layer_5" class="cls-7">
      <g>
        <text class="cls-3" transform="translate(262.18 132.8)"><tspan x="0" y="0">RUST</tspan></text>
        <path class="cls-6" d="M176.12,48.02c0-2.23,1.81-4.04,4.04-4.04s4.04,1.81,4.04,4.04-1.81,4.04-4.04,4.04-4.04-1.81-4.04-4.04M127.89,84.62c0-2.23,1.81-4.04,4.04-4.04s4.04,1.81,4.04,4.04-1.81,4.04-4.04,4.04-4.04-1.81-4.04-4.04M224.34,84.81c0-2.23,1.81-4.04,4.04-4.04s4.04,1.81,4.04,4.04h0c0,2.23-1.81,4.04-4.04,4.04s-4.04-1.81-4.04-4.04M139.6,90.35c1.86-.83,2.7-3.01,1.87-4.87l-1.79-4.06h7.05v31.79h-14.23c-1.76-6.17-2.3-12.62-1.61-19l8.71-3.87ZM169.1,91.13v-9.37h16.8c.87,0,6.13,1,6.13,4.93,0,3.27-4.03,4.44-7.35,4.44h-15.57ZM146.17,141.59c0-2.23,1.81-4.04,4.04-4.04s4.04,1.81,4.04,4.04-1.81,4.04-4.04,4.04-4.04-1.81-4.04-4.04M206.06,141.77c0-2.23,1.81-4.04,4.04-4.04s4.04,1.81,4.04,4.04-1.81,4.04-4.04,4.04-4.04-1.81-4.04-4.04M207.31,132.61c-1.99-.43-3.95.84-4.38,2.83,0,0,0,0,0,0l-2.03,9.47c-13.2,5.98-28.36,5.91-41.5-.2l-2.03-9.47c-.42-1.99-2.38-3.26-4.37-2.83h0s-8.36,1.8-8.36,1.8c-1.55-1.6-3-3.3-4.32-5.09h40.67c.46,0,.77-.08.77-.5v-14.39c0-.42-.31-.5-.77-.5h-11.9v-9.12h12.87c1.17,0,6.28.34,7.91,6.86.51,2.01,1.63,8.53,2.4,10.62.77,2.34,3.88,7.03,7.2,7.03h21c-1.41,1.88-2.95,3.67-4.61,5.33l-8.55-1.84ZM229.9,94.62c.29,2.87.32,5.76.11,8.64h-5.11c-.51,0-.72.34-.72.84v2.34c0,5.52-3.11,6.72-5.84,7.03-2.6.29-5.48-1.09-5.83-2.68-1.53-8.62-4.09-10.46-8.12-13.64,5-3.18,10.21-7.87,10.21-14.14,0-6.78-4.64-11.04-7.81-13.13-4.44-2.93-9.36-3.51-10.69-3.51h-52.81c7.3-8.16,17.09-13.68,27.84-15.72l6.22,6.53c1.4,1.47,3.73,1.53,5.2.12,0,0,0,0,0,0l6.97-6.66c14.37,2.69,26.83,11.57,34.07,24.27l-4.77,10.77c-.82,1.86.02,4.04,1.88,4.87l9.18,4.08ZM241.79,94.79l-.16-1.67,4.91-4.58c1-.93.62-2.81-.65-3.28l-6.28-2.35-.49-1.62,3.92-5.44c.8-1.11.07-2.87-1.28-3.09l-6.62-1.08-.79-1.49,2.78-6.11c.57-1.24-.49-2.83-1.86-2.78l-6.72.23-1.06-1.29,1.54-6.54c.31-1.33-1.04-2.68-2.37-2.37l-6.54,1.54-1.29-1.06.23-6.72c.05-1.36-1.54-2.42-2.78-1.86l-6.11,2.78-1.49-.8-1.08-6.62c-.22-1.34-1.99-2.08-3.09-1.28l-5.44,3.92-1.62-.49-2.35-6.28c-.48-1.28-2.35-1.65-3.28-.65l-4.58,4.91-1.67-.16-3.54-5.72c-.72-1.16-2.63-1.16-3.34,0l-3.54,5.72-1.67.16-4.58-4.91c-.93-.99-2.8-.63-3.28.65l-2.35,6.28-1.62.49-5.44-3.92c-1.11-.8-2.87-.06-3.09,1.28l-1.08,6.62-1.49.8-6.11-2.78c-1.24-.57-2.83.5-2.78,1.86l.23,6.72-1.29,1.06-6.54-1.54c-1.33-.31-2.68,1.04-2.37,2.37l1.54,6.54-1.06,1.29-6.72-.23c-1.35-.04-2.42,1.54-1.86,2.78l2.78,6.11-.8,1.49-6.62,1.08c-1.35.22-2.07,1.99-1.28,3.09l3.92,5.44-.49,1.62-6.28,2.35c-1.27.48-1.65,2.35-.65,3.28l4.91,4.58-.16,1.67-5.71,3.54c-1.16.72-1.16,2.63,0,3.34l5.71,3.54.16,1.67-4.91,4.58c-1,.93-.62,2.8.65,3.28l6.28,2.35.49,1.62-3.92,5.44c-.8,1.11-.06,2.87,1.28,3.09l6.62,1.08.8,1.49-2.78,6.1c-.57,1.24.5,2.84,1.86,2.78l6.72-.23,1.06,1.29-1.54,6.55c-.31,1.33,1.04,2.67,2.37,2.36l6.54-1.54,1.29,1.06-.23,6.72c-.05,1.36,1.54,2.42,2.78,1.86l6.11-2.78,1.49.8,1.08,6.62c.22,1.35,1.99,2.08,3.09,1.28l5.44-3.92,1.62.49,2.35,6.28c.48,1.27,2.35,1.65,3.28.65l4.58-4.91,1.67.17,3.54,5.71c.71,1.15,2.63,1.16,3.34,0l3.54-5.71,1.67-.17,4.58,4.91c.93,1,2.8.62,3.28-.65l2.35-6.28,1.62-.49,5.44,3.92c1.11.79,2.87.06,3.09-1.28l1.08-6.62,1.49-.8,6.1,2.78c1.24.57,2.83-.49,2.78-1.86l-.23-6.72,1.29-1.06,6.54,1.54c1.33.31,2.68-1.04,2.37-2.36l-1.54-6.55,1.06-1.29,6.72.23c1.36.05,2.43-1.54,1.86-2.78l-2.78-6.1.79-1.49,6.62-1.08c1.35-.22,2.08-1.98,1.28-3.09l-3.92-5.44.49-1.62,6.28-2.35c1.28-.48,1.65-2.35.65-3.28l-4.91-4.58.16-1.67,5.71-3.54c1.16-.71,1.16-2.63,0-3.34l-5.71-3.54Z"/>
      </g>
    </g>
    <g id="Layer_6" class="cls-7">
      <g>
        <text class="cls-1" transform="translate(179.9 128.37) scale(1.09 1)"><tspan x="0" y="0">Solidity</tspan></text>
        <g id="Page-1">
          <g>
            <polygon class="cls-6" points="125.09 121.93 125.09 121.93 125.09 121.93 125.09 121.93"/>
            <polygon class="cls-5" points="160.5 77.81 142.26 48.69 124.52 78.07 160.5 77.81"/>
            <polygon class="cls-5" points="142.26 48.69 106.29 48.95 124.52 78.07 142.26 48.69"/>
            <polygon class="cls-5" points="142.26 48.69 106.29 48.95 124.52 78.07 142.26 48.69"/>
            <polygon class="cls-5" points="124.52 78.07 88.56 78.33 106.8 107.44 124.52 78.07"/>
            <polygon class="cls-5" points="106.29 48.95 88.56 78.33 124.52 78.07 106.29 48.95"/>
            <polygon class="cls-5" points="106.29 48.95 88.56 78.33 124.52 78.07 106.29 48.95"/>
            <polygon class="cls-5" points="153.31 134.52 161.07 121.67 161.06 121.67 161.07 121.67 153.31 134.52"/>
            <rect class="cls-5" x="134.21" y="119.31" width="0" height="34.36"/>
            <polygon class="cls-5" points="125.09 121.93 125.09 121.93 89.12 122.19 107.35 151.31 143.33 151.05 143.33 151.05 107.35 151.31 125.09 121.93"/>
            <polygon class="cls-5" points="107.35 151.31 143.33 151.05 125.09 121.93 107.35 151.31"/>
            <polygon class="cls-5" points="107.35 151.31 143.33 151.05 125.09 121.93 107.35 151.31"/>
            <polygon class="cls-5" points="125.09 121.93 161.06 121.67 142.82 92.56 125.09 121.93 125.09 121.93 125.09 121.93"/>
            <polygon class="cls-5" points="143.33 151.05 143.33 151.05 153.31 134.52 143.33 151.05 143.33 151.05"/>
            <polygon class="cls-5" points="125.09 121.93 143.33 151.05 143.33 151.05 153.31 134.52 161.07 121.67 161.06 121.67 125.09 121.93 125.09 121.93"/>
            <polygon class="cls-5" points="125.09 121.93 143.33 151.05 143.33 151.05 153.31 134.52 161.07 121.67 161.06 121.67 125.09 121.93 125.09 121.93"/>
          </g>
        </g>
      </g>
    </g>
  </g>
</svg>